<svg xmlns="http://www.w3.org/2000/svg" width="1564" height="1146" viewBox="0 0 1564 1146">
<rect width="100%" height="100%" fill="white"/>
<text x="24.0" y="1020.0" font-family="Arial, Helvetica, sans-serif" font-size="16" fill="#111" text-anchor="start" font-weight="bold">Example Site G — Single Line Diagram (sketch)</text>
<rect x="624.9" y="150.0" width="84.0" height="118.0" fill="none" stroke="#111" stroke-width="1.6" stroke-dasharray="7 5"/>
<line x1="648.9" y1="209.0" x2="684.9" y2="209.0" stroke="#111" stroke-width="3.4" stroke-linecap="round"/>
<line x1="666.9" y1="162.0" x2="666.9" y2="165.0" stroke="#111" stroke-width="2" stroke-linecap="round"/>
<circle cx="666.9" cy="167.5" r="2.5" fill="none" stroke="#111" stroke-width="1.5"/>
<line x1="668.9" y1="170.0" x2="675.9" y2="200.0" stroke="#111" stroke-width="2" stroke-linecap="round"/>
<line x1="660.9" y1="200.0" x2="672.9" y2="200.0" stroke="#111" stroke-width="2" stroke-linecap="round"/>
<line x1="666.9" y1="200.0" x2="666.9" y2="209.0" stroke="#111" stroke-width="2" stroke-linecap="round"/>
<line x1="666.9" y1="150.0" x2="666.9" y2="162.0" stroke="#111" stroke-width="2" stroke-linecap="round"/>
<circle cx="666.9" cy="209.0" r="3.2" fill="#111"/>
<line x1="666.9" y1="213.0" x2="666.9" y2="216.0" stroke="#111" stroke-width="2" stroke-linecap="round"/>
<circle cx="666.9" cy="218.5" r="2.5" fill="none" stroke="#111" stroke-width="1.5"/>
<line x1="668.9" y1="221.0" x2="675.9" y2="231.5" stroke="#111" stroke-width="2" stroke-linecap="round"/>
<line x1="660.9" y1="231.5" x2="672.9" y2="231.5" stroke="#111" stroke-width="2" stroke-linecap="round"/>
<line x1="666.9" y1="231.5" x2="666.9" y2="240.5" stroke="#111" stroke-width="2" stroke-linecap="round"/>
<rect x="662.9" y="242.5" width="8.0" height="15.5" fill="none" stroke="#111" stroke-width="2"/>
<line x1="666.9" y1="240.5" x2="666.9" y2="242.5" stroke="#111" stroke-width="2" stroke-linecap="round"/>
<line x1="666.9" y1="258.0" x2="666.9" y2="260.0" stroke="#111" stroke-width="2" stroke-linecap="round"/>
<line x1="666.9" y1="209.0" x2="666.9" y2="213.0" stroke="#111" stroke-width="2" stroke-linecap="round"/>
<line x1="666.9" y1="260.0" x2="666.9" y2="268.0" stroke="#111" stroke-width="2" stroke-linecap="round"/>
<circle cx="666.9" cy="209.0" r="3.2" fill="#111"/>
<text x="718.9" y="166.0" font-family="Arial, Helvetica, sans-serif" font-size="12" fill="#111" text-anchor="start" font-weight="bold">RMU1</text>
<text x="718.9" y="181.0" font-family="Arial, Helvetica, sans-serif" font-size="12" fill="#111" text-anchor="start">3-way ring main unit</text>
<text x="718.9" y="196.0" font-family="Arial, Helvetica, sans-serif" font-size="12" fill="#111" text-anchor="start">630 A 11 kV</text>
<line x1="655.9" y1="62.0" x2="677.9" y2="62.0" stroke="#111" stroke-width="3" stroke-linecap="round"/>
<text x="666.9" y="18.0" font-family="Arial, Helvetica, sans-serif" font-size="11.5" fill="#111" text-anchor="middle" font-weight="bold">MV1</text>
<text x="666.9" y="32.0" font-family="Arial, Helvetica, sans-serif" font-size="11.5" fill="#111" text-anchor="middle">Utility supply</text>
<text x="666.9" y="46.0" font-family="Arial, Helvetica, sans-serif" font-size="11.5" fill="#111" text-anchor="middle">11 kV</text>
<line x1="666.9" y1="62.0" x2="666.9" y2="150.0" stroke="#111" stroke-width="2" stroke-linecap="round"/>
<circle cx="157.5" cy="686.0" r="3.2" fill="#111"/>
<line x1="157.5" y1="703.0" x2="157.5" y2="705.0" stroke="#111" stroke-width="2" stroke-linecap="round"/>
<path d="M 153.5,709.0 A 4,4 0 0 1 161.5,709.0" fill="none" stroke="#111" stroke-width="2" stroke-linecap="round"/>
<line x1="159.5" y1="711.0" x2="165.5" y2="723.0" stroke="#111" stroke-width="2" stroke-linecap="round"/>
<line x1="157.5" y1="725.0" x2="157.5" y2="729.0" stroke="#111" stroke-width="2" stroke-linecap="round"/>
<line x1="157.5" y1="686.0" x2="157.5" y2="703.0" stroke="#111" stroke-width="2" stroke-linecap="round"/>
<line x1="157.5" y1="729.0" x2="157.5" y2="746.0" stroke="#111" stroke-width="2" stroke-linecap="round"/>
<circle cx="157.5" cy="760.0" r="14" fill="none" stroke="#111" stroke-width="2.2"/>
<text x="157.5" y="761.0" font-family="Arial, Helvetica, sans-serif" font-size="13" fill="#111" text-anchor="middle" font-weight="bold">M</text>
<text x="157.5" y="773.0" font-family="Arial, Helvetica, sans-serif" font-size="8.5" fill="#111" text-anchor="middle">3~</text>
<text x="0" y="0" transform="translate(161.5,788.0) rotate(90)" font-family="Arial, Helvetica, sans-serif" font-size="11" fill="#111" text-anchor="start">P1 · Raw water pump 1 · 55 kW</text>
<circle cx="252.5" cy="686.0" r="3.2" fill="#111"/>
<line x1="252.5" y1="703.0" x2="252.5" y2="705.0" stroke="#111" stroke-width="2" stroke-linecap="round"/>
<path d="M 248.5,709.0 A 4,4 0 0 1 256.5,709.0" fill="none" stroke="#111" stroke-width="2" stroke-linecap="round"/>
<line x1="254.5" y1="711.0" x2="260.5" y2="723.0" stroke="#111" stroke-width="2" stroke-linecap="round"/>
<line x1="252.5" y1="725.0" x2="252.5" y2="729.0" stroke="#111" stroke-width="2" stroke-linecap="round"/>
<line x1="252.5" y1="686.0" x2="252.5" y2="703.0" stroke="#111" stroke-width="2" stroke-linecap="round"/>
<line x1="252.5" y1="729.0" x2="252.5" y2="746.0" stroke="#111" stroke-width="2" stroke-linecap="round"/>
<circle cx="252.5" cy="760.0" r="14" fill="none" stroke="#111" stroke-width="2.2"/>
<text x="252.5" y="761.0" font-family="Arial, Helvetica, sans-serif" font-size="13" fill="#111" text-anchor="middle" font-weight="bold">M</text>
<text x="252.5" y="773.0" font-family="Arial, Helvetica, sans-serif" font-size="8.5" fill="#111" text-anchor="middle">3~</text>
<text x="0" y="0" transform="translate(256.5,788.0) rotate(90)" font-family="Arial, Helvetica, sans-serif" font-size="11" fill="#111" text-anchor="start">P2 · Raw water pump 2 · 55 kW</text>
<circle cx="347.5" cy="686.0" r="3.2" fill="#111"/>
<line x1="347.5" y1="703.0" x2="347.5" y2="705.0" stroke="#111" stroke-width="2" stroke-linecap="round"/>
<path d="M 343.5,709.0 A 4,4 0 0 1 351.5,709.0" fill="none" stroke="#111" stroke-width="2" stroke-linecap="round"/>
<line x1="349.5" y1="711.0" x2="355.5" y2="723.0" stroke="#111" stroke-width="2" stroke-linecap="round"/>
<line x1="347.5" y1="725.0" x2="347.5" y2="729.0" stroke="#111" stroke-width="2" stroke-linecap="round"/>
<line x1="347.5" y1="686.0" x2="347.5" y2="703.0" stroke="#111" stroke-width="2" stroke-linecap="round"/>
<line x1="347.5" y1="729.0" x2="347.5" y2="746.0" stroke="#111" stroke-width="2" stroke-linecap="round"/>
<rect x="335.5" y="725.0" width="24.0" height="14.0" fill="white" stroke="#111" stroke-width="1.5"/>
<text x="347.5" y="735.0" font-family="Arial, Helvetica, sans-serif" font-size="7.5" fill="#111" text-anchor="middle">VSD</text>
<circle cx="347.5" cy="760.0" r="14" fill="none" stroke="#111" stroke-width="2.2"/>
<text x="347.5" y="761.0" font-family="Arial, Helvetica, sans-serif" font-size="13" fill="#111" text-anchor="middle" font-weight="bold">M</text>
<text x="347.5" y="773.0" font-family="Arial, Helvetica, sans-serif" font-size="8.5" fill="#111" text-anchor="middle">3~</text>
<text x="0" y="0" transform="translate(351.5,788.0) rotate(90)" font-family="Arial, Helvetica, sans-serif" font-size="11" fill="#111" text-anchor="start">P3 · Booster pump · 30 kW</text>
<circle cx="442.5" cy="686.0" r="3.2" fill="#111"/>
<rect x="438.5" y="700.0" width="8.0" height="12.0" fill="none" stroke="#111" stroke-width="2"/>
<line x1="442.5" y1="700.0" x2="442.5" y2="712.0" stroke="#111" stroke-width="2" stroke-linecap="round"/>
<path d="M 438.5,716.0 A 4,4 0 0 1 446.5,716.0" fill="none" stroke="#111" stroke-width="2" stroke-linecap="round"/>
<line x1="444.5" y1="718.0" x2="449.5" y2="727.0" stroke="#111" stroke-width="2" stroke-linecap="round"/>
<line x1="442.5" y1="728.0" x2="442.5" y2="732.0" stroke="#111" stroke-width="2" stroke-linecap="round"/>
<line x1="442.5" y1="686.0" x2="442.5" y2="700.0" stroke="#111" stroke-width="2" stroke-linecap="round"/>
<line x1="442.5" y1="732.0" x2="442.5" y2="746.0" stroke="#111" stroke-width="2" stroke-linecap="round"/>
<circle cx="442.5" cy="760.0" r="14" fill="none" stroke="#111" stroke-width="2.2"/>
<text x="442.5" y="761.0" font-family="Arial, Helvetica, sans-serif" font-size="13" fill="#111" text-anchor="middle" font-weight="bold">M</text>
<text x="442.5" y="773.0" font-family="Arial, Helvetica, sans-serif" font-size="8.5" fill="#111" text-anchor="middle">3~</text>
<text x="0" y="0" transform="translate(446.5,788.0) rotate(90)" font-family="Arial, Helvetica, sans-serif" font-size="11" fill="#111" text-anchor="start">P4 · Sump pump · 5.5 kW</text>
<circle cx="734.4" cy="686.0" r="3.2" fill="#111"/>
<line x1="734.4" y1="703.0" x2="734.4" y2="705.0" stroke="#111" stroke-width="2" stroke-linecap="round"/>
<path d="M 730.4,709.0 A 4,4 0 0 1 738.4,709.0" fill="none" stroke="#111" stroke-width="2" stroke-linecap="round"/>
<line x1="736.4" y1="711.0" x2="742.4" y2="723.0" stroke="#111" stroke-width="2" stroke-linecap="round"/>
<line x1="734.4" y1="725.0" x2="734.4" y2="729.0" stroke="#111" stroke-width="2" stroke-linecap="round"/>
<line x1="734.4" y1="686.0" x2="734.4" y2="703.0" stroke="#111" stroke-width="2" stroke-linecap="round"/>
<line x1="734.4" y1="729.0" x2="734.4" y2="746.0" stroke="#111" stroke-width="2" stroke-linecap="round"/>
<rect x="722.4" y="725.0" width="24.0" height="14.0" fill="white" stroke="#111" stroke-width="1.5"/>
<text x="734.4" y="735.0" font-family="Arial, Helvetica, sans-serif" font-size="7.5" fill="#111" text-anchor="middle">VSD</text>
<circle cx="734.4" cy="760.0" r="14" fill="none" stroke="#111" stroke-width="2.2"/>
<text x="734.4" y="761.0" font-family="Arial, Helvetica, sans-serif" font-size="13" fill="#111" text-anchor="middle" font-weight="bold">M</text>
<text x="734.4" y="773.0" font-family="Arial, Helvetica, sans-serif" font-size="8.5" fill="#111" text-anchor="middle">3~</text>
<text x="0" y="0" transform="translate(738.4,788.0) rotate(90)" font-family="Arial, Helvetica, sans-serif" font-size="11" fill="#111" text-anchor="start">B1 · Blower 1 · 22 kW</text>
<circle cx="829.4" cy="686.0" r="3.2" fill="#111"/>
<line x1="829.4" y1="703.0" x2="829.4" y2="705.0" stroke="#111" stroke-width="2" stroke-linecap="round"/>
<path d="M 825.4,709.0 A 4,4 0 0 1 833.4,709.0" fill="none" stroke="#111" stroke-width="2" stroke-linecap="round"/>
<line x1="831.4" y1="711.0" x2="837.4" y2="723.0" stroke="#111" stroke-width="2" stroke-linecap="round"/>
<line x1="829.4" y1="725.0" x2="829.4" y2="729.0" stroke="#111" stroke-width="2" stroke-linecap="round"/>
<line x1="829.4" y1="686.0" x2="829.4" y2="703.0" stroke="#111" stroke-width="2" stroke-linecap="round"/>
<line x1="829.4" y1="729.0" x2="829.4" y2="746.0" stroke="#111" stroke-width="2" stroke-linecap="round"/>
<rect x="817.4" y="725.0" width="24.0" height="14.0" fill="white" stroke="#111" stroke-width="1.5"/>
<text x="829.4" y="735.0" font-family="Arial, Helvetica, sans-serif" font-size="7.5" fill="#111" text-anchor="middle">VSD</text>
<circle cx="829.4" cy="760.0" r="14" fill="none" stroke="#111" stroke-width="2.2"/>
<text x="829.4" y="761.0" font-family="Arial, Helvetica, sans-serif" font-size="13" fill="#111" text-anchor="middle" font-weight="bold">M</text>
<text x="829.4" y="773.0" font-family="Arial, Helvetica, sans-serif" font-size="8.5" fill="#111" text-anchor="middle">3~</text>
<text x="0" y="0" transform="translate(833.4,788.0) rotate(90)" font-family="Arial, Helvetica, sans-serif" font-size="11" fill="#111" text-anchor="start">B2 · Blower 2 · 22 kW</text>
<circle cx="666.9" cy="342.0" r="19" fill="none" stroke="#111" stroke-width="2.2"/>
<circle cx="666.9" cy="369.0" r="19" fill="none" stroke="#111" stroke-width="2.2"/>
<text x="695.9" y="336.0" font-family="Arial, Helvetica, sans-serif" font-size="12" fill="#111" text-anchor="start">TX1</text>
<text x="695.9" y="351.0" font-family="Arial, Helvetica, sans-serif" font-size="12" fill="#111" text-anchor="start">Oil-immersed, Dyn11</text>
<text x="695.9" y="366.0" font-family="Arial, Helvetica, sans-serif" font-size="12" fill="#111" text-anchor="start">1000 kVA 11/0.4 kV</text>
<line x1="666.9" y1="268.0" x2="666.9" y2="323.0" stroke="#111" stroke-width="2" stroke-linecap="round"/>
<line x1="666.9" y1="424.0" x2="666.9" y2="426.0" stroke="#111" stroke-width="2" stroke-linecap="round"/>
<line x1="663.4" y1="426.0" x2="670.4" y2="433.0" stroke="#111" stroke-width="2" stroke-linecap="round"/>
<line x1="663.4" y1="433.0" x2="670.4" y2="426.0" stroke="#111" stroke-width="2" stroke-linecap="round"/>
<line x1="668.9" y1="432.5" x2="675.9" y2="441.0" stroke="#111" stroke-width="2" stroke-linecap="round"/>
<line x1="660.9" y1="441.0" x2="672.9" y2="441.0" stroke="#111" stroke-width="2" stroke-linecap="round"/>
<line x1="666.9" y1="441.0" x2="666.9" y2="450.0" stroke="#111" stroke-width="2" stroke-linecap="round"/>
<line x1="666.9" y1="388.0" x2="666.9" y2="424.0" stroke="#111" stroke-width="2" stroke-linecap="round"/>
<line x1="666.9" y1="450.0" x2="666.9" y2="486.0" stroke="#111" stroke-width="2" stroke-linecap="round"/>
<circle cx="666.9" cy="486.0" r="3.2" fill="#111"/>
<line x1="90.0" y1="486.0" x2="1243.8" y2="486.0" stroke="#111" stroke-width="5.5" stroke-linecap="round"/>
<text x="90.0" y="474.0" font-family="Arial, Helvetica, sans-serif" font-size="11.5" fill="#111" text-anchor="start" font-weight="bold">MSB Main LV board 1600 A 400 V</text>
<circle cx="347.5" cy="486.0" r="3.2" fill="#111"/>
<line x1="347.5" y1="503.0" x2="347.5" y2="505.0" stroke="#111" stroke-width="2" stroke-linecap="round"/>
<line x1="344.0" y1="505.0" x2="351.0" y2="512.0" stroke="#111" stroke-width="2" stroke-linecap="round"/>
<line x1="344.0" y1="512.0" x2="351.0" y2="505.0" stroke="#111" stroke-width="2" stroke-linecap="round"/>
<line x1="349.5" y1="511.5" x2="356.5" y2="520.0" stroke="#111" stroke-width="2" stroke-linecap="round"/>
<line x1="341.5" y1="520.0" x2="353.5" y2="520.0" stroke="#111" stroke-width="2" stroke-linecap="round"/>
<line x1="347.5" y1="520.0" x2="347.5" y2="529.0" stroke="#111" stroke-width="2" stroke-linecap="round"/>
<line x1="347.5" y1="486.0" x2="347.5" y2="503.0" stroke="#111" stroke-width="2" stroke-linecap="round"/>
<line x1="347.5" y1="529.0" x2="347.5" y2="548.0" stroke="#111" stroke-width="2" stroke-linecap="round"/>
<rect x="333.5" y="548.0" width="28.0" height="26.0" fill="none" stroke="#111" stroke-width="2"/>
<text x="347.5" y="566.0" font-family="Arial, Helvetica, sans-serif" font-size="8" fill="#111" text-anchor="middle">MCC</text>
<rect x="100.0" y="498.0" width="495.0" height="198.0" fill="none" stroke="#111" stroke-width="1.6" stroke-dasharray="7 5"/>
<line x1="347.5" y1="574.0" x2="347.5" y2="686.0" stroke="#111" stroke-width="2" stroke-linecap="round"/>
<line x1="110.0" y1="686.0" x2="585.0" y2="686.0" stroke="#111" stroke-width="5.5" stroke-linecap="round"/>
<text x="110.0" y="674.0" font-family="Arial, Helvetica, sans-serif" font-size="11.5" fill="#111" text-anchor="start" font-weight="bold">MCC1 Pump MCC 630 A</text>
<circle cx="537.5" cy="686.0" r="3.2" fill="#111"/>
<line x1="537.5" y1="703.0" x2="537.5" y2="705.0" stroke="#111" stroke-width="2" stroke-linecap="round"/>
<line x1="534.0" y1="705.0" x2="541.0" y2="712.0" stroke="#111" stroke-width="2" stroke-linecap="round"/>
<line x1="534.0" y1="712.0" x2="541.0" y2="705.0" stroke="#111" stroke-width="2" stroke-linecap="round"/>
<line x1="539.5" y1="711.5" x2="546.5" y2="720.0" stroke="#111" stroke-width="2" stroke-linecap="round"/>
<line x1="531.5" y1="720.0" x2="543.5" y2="720.0" stroke="#111" stroke-width="2" stroke-linecap="round"/>
<line x1="537.5" y1="720.0" x2="537.5" y2="729.0" stroke="#111" stroke-width="2" stroke-linecap="round"/>
<line x1="537.5" y1="686.0" x2="537.5" y2="703.0" stroke="#111" stroke-width="2" stroke-linecap="round"/>
<line x1="537.5" y1="729.0" x2="537.5" y2="764.0" stroke="#111" stroke-width="2" stroke-linecap="round"/>
<polygon points="531.5,763.0 543.5,763.0 537.5,774.0" fill="#111"/>
<text x="0" y="0" transform="translate(541.5,792.0) rotate(90)" font-family="Arial, Helvetica, sans-serif" font-size="11" fill="#111" text-anchor="start">F5 · MCC auxiliaries · 32 A</text>
<circle cx="781.9" cy="486.0" r="3.2" fill="#111"/>
<line x1="781.9" y1="503.0" x2="781.9" y2="505.0" stroke="#111" stroke-width="2" stroke-linecap="round"/>
<line x1="778.4" y1="505.0" x2="785.4" y2="512.0" stroke="#111" stroke-width="2" stroke-linecap="round"/>
<line x1="778.4" y1="512.0" x2="785.4" y2="505.0" stroke="#111" stroke-width="2" stroke-linecap="round"/>
<line x1="783.9" y1="511.5" x2="790.9" y2="520.0" stroke="#111" stroke-width="2" stroke-linecap="round"/>
<line x1="775.9" y1="520.0" x2="787.9" y2="520.0" stroke="#111" stroke-width="2" stroke-linecap="round"/>
<line x1="781.9" y1="520.0" x2="781.9" y2="529.0" stroke="#111" stroke-width="2" stroke-linecap="round"/>
<line x1="781.9" y1="486.0" x2="781.9" y2="503.0" stroke="#111" stroke-width="2" stroke-linecap="round"/>
<line x1="781.9" y1="529.0" x2="781.9" y2="548.0" stroke="#111" stroke-width="2" stroke-linecap="round"/>
<rect x="767.9" y="548.0" width="28.0" height="26.0" fill="none" stroke="#111" stroke-width="2"/>
<text x="781.9" y="566.0" font-family="Arial, Helvetica, sans-serif" font-size="8" fill="#111" text-anchor="middle">MCC</text>
<rect x="615.0" y="498.0" width="333.8" height="198.0" fill="none" stroke="#111" stroke-width="1.6" stroke-dasharray="7 5"/>
<line x1="781.9" y1="574.0" x2="781.9" y2="686.0" stroke="#111" stroke-width="2" stroke-linecap="round"/>
<line x1="625.0" y1="686.0" x2="938.8" y2="686.0" stroke="#111" stroke-width="5.5" stroke-linecap="round"/>
<text x="625.0" y="674.0" font-family="Arial, Helvetica, sans-serif" font-size="11.5" fill="#111" text-anchor="start" font-weight="bold">MCC2 Blower MCC 250 A</text>
<circle cx="1006.3" cy="486.0" r="3.2" fill="#111"/>
<line x1="1006.3" y1="503.0" x2="1006.3" y2="505.0" stroke="#111" stroke-width="2" stroke-linecap="round"/>
<line x1="1002.8" y1="505.0" x2="1009.8" y2="512.0" stroke="#111" stroke-width="2" stroke-linecap="round"/>
<line x1="1002.8" y1="512.0" x2="1009.8" y2="505.0" stroke="#111" stroke-width="2" stroke-linecap="round"/>
<line x1="1008.3" y1="511.5" x2="1015.3" y2="520.0" stroke="#111" stroke-width="2" stroke-linecap="round"/>
<line x1="1000.3" y1="520.0" x2="1012.3" y2="520.0" stroke="#111" stroke-width="2" stroke-linecap="round"/>
<line x1="1006.3" y1="520.0" x2="1006.3" y2="529.0" stroke="#111" stroke-width="2" stroke-linecap="round"/>
<line x1="1006.3" y1="486.0" x2="1006.3" y2="503.0" stroke="#111" stroke-width="2" stroke-linecap="round"/>
<line x1="1006.3" y1="529.0" x2="1006.3" y2="548.0" stroke="#111" stroke-width="2" stroke-linecap="round"/>
<rect x="992.3" y="548.0" width="28.0" height="26.0" fill="none" stroke="#111" stroke-width="2"/>
<text x="1006.3" y="566.0" font-family="Arial, Helvetica, sans-serif" font-size="8" fill="#111" text-anchor="middle">MCC</text>
<text x="0" y="0" transform="translate(1010.3,592.0) rotate(90)" font-family="Arial, Helvetica, sans-serif" font-size="11" fill="#111" text-anchor="start">MCC3 · Dosing MCC · 100 A</text>
<circle cx="1101.3" cy="486.0" r="3.2" fill="#111"/>
<line x1="1101.3" y1="503.0" x2="1101.3" y2="505.0" stroke="#111" stroke-width="2" stroke-linecap="round"/>
<line x1="1097.8" y1="505.0" x2="1104.8" y2="512.0" stroke="#111" stroke-width="2" stroke-linecap="round"/>
<line x1="1097.8" y1="512.0" x2="1104.8" y2="505.0" stroke="#111" stroke-width="2" stroke-linecap="round"/>
<line x1="1103.3" y1="511.5" x2="1110.3" y2="520.0" stroke="#111" stroke-width="2" stroke-linecap="round"/>
<line x1="1095.3" y1="520.0" x2="1107.3" y2="520.0" stroke="#111" stroke-width="2" stroke-linecap="round"/>
<line x1="1101.3" y1="520.0" x2="1101.3" y2="529.0" stroke="#111" stroke-width="2" stroke-linecap="round"/>
<line x1="1101.3" y1="486.0" x2="1101.3" y2="503.0" stroke="#111" stroke-width="2" stroke-linecap="round"/>
<line x1="1101.3" y1="529.0" x2="1101.3" y2="564.0" stroke="#111" stroke-width="2" stroke-linecap="round"/>
<polygon points="1095.3,563.0 1107.3,563.0 1101.3,574.0" fill="#111"/>
<text x="0" y="0" transform="translate(1105.3,592.0) rotate(90)" font-family="Arial, Helvetica, sans-serif" font-size="11" fill="#111" text-anchor="start">F1 · Lighting and small power · 100 A</text>
<circle cx="1196.3" cy="486.0" r="3.2" fill="#111"/>
<line x1="1196.3" y1="503.0" x2="1196.3" y2="505.0" stroke="#111" stroke-width="2" stroke-linecap="round"/>
<line x1="1192.8" y1="505.0" x2="1199.8" y2="512.0" stroke="#111" stroke-width="2" stroke-linecap="round"/>
<line x1="1192.8" y1="512.0" x2="1199.8" y2="505.0" stroke="#111" stroke-width="2" stroke-linecap="round"/>
<line x1="1198.3" y1="511.5" x2="1205.3" y2="520.0" stroke="#111" stroke-width="2" stroke-linecap="round"/>
<line x1="1190.3" y1="520.0" x2="1202.3" y2="520.0" stroke="#111" stroke-width="2" stroke-linecap="round"/>
<line x1="1196.3" y1="520.0" x2="1196.3" y2="529.0" stroke="#111" stroke-width="2" stroke-linecap="round"/>
<line x1="1196.3" y1="486.0" x2="1196.3" y2="503.0" stroke="#111" stroke-width="2" stroke-dasharray="5 4" stroke-linecap="round"/>
<line x1="1196.3" y1="529.0" x2="1196.3" y2="564.0" stroke="#111" stroke-width="2" stroke-dasharray="5 4" stroke-linecap="round"/>
<polygon points="1190.3,563.0 1202.3,563.0 1196.3,574.0" fill="#111"/>
<text x="0" y="0" transform="translate(1200.3,592.0) rotate(90)" font-family="Arial, Helvetica, sans-serif" font-size="11" fill="#111" text-anchor="start">F2 · Spare · 250 A</text>
<rect x="1251.8" y="930.0" width="288.0" height="96.0" fill="none" stroke="#111" stroke-width="1.5"/>
<line x1="1251.8" y1="954.0" x2="1539.8" y2="954.0" stroke="#111" stroke-width="1.5" stroke-linecap="round"/>
<text x="1261.8" y="947.0" font-family="Arial, Helvetica, sans-serif" font-size="12" fill="#111" text-anchor="start" font-weight="bold">SLD SKETCH — SITE SURVEY</text>
<text x="1261.8" y="970.0" font-family="Arial, Helvetica, sans-serif" font-size="11" fill="#111" text-anchor="start" font-weight="bold">Site:</text>
<text x="1309.8" y="970.0" font-family="Arial, Helvetica, sans-serif" font-size="11" fill="#111" text-anchor="start">Example Site G</text>
<text x="1261.8" y="986.0" font-family="Arial, Helvetica, sans-serif" font-size="11" fill="#111" text-anchor="start" font-weight="bold">Date:</text>
<text x="1309.8" y="986.0" font-family="Arial, Helvetica, sans-serif" font-size="11" fill="#111" text-anchor="start">2026-09-02</text>
<text x="1261.8" y="1002.0" font-family="Arial, Helvetica, sans-serif" font-size="11" fill="#111" text-anchor="start" font-weight="bold">By:</text>
<text x="1309.8" y="1002.0" font-family="Arial, Helvetica, sans-serif" font-size="11" fill="#111" text-anchor="start">A. Ardigo</text>
<text x="1261.8" y="1018.0" font-family="Arial, Helvetica, sans-serif" font-size="11" fill="#111" text-anchor="start" font-weight="bold">Notes:</text>
<text x="1309.8" y="1018.0" font-family="Arial, Helvetica, sans-serif" font-size="11" fill="#111" text-anchor="start">Config 7 - pump station, MCCs feed the motor</text>
<rect x="24.0" y="1052.0" width="900.0" height="82.0" fill="none" stroke="#111" stroke-width="1.2"/>
<text x="32.0" y="1066.0" font-family="Arial, Helvetica, sans-serif" font-size="10" fill="#111" text-anchor="start" font-weight="bold">LEGEND</text>
<line x1="66.0" y1="1076.0" x2="66.0" y2="1078.0" stroke="#111" stroke-width="2" stroke-linecap="round"/>
<line x1="62.5" y1="1078.0" x2="69.5" y2="1085.0" stroke="#111" stroke-width="2" stroke-linecap="round"/>
<line x1="62.5" y1="1085.0" x2="69.5" y2="1078.0" stroke="#111" stroke-width="2" stroke-linecap="round"/>
<line x1="68.0" y1="1084.5" x2="75.0" y2="1093.0" stroke="#111" stroke-width="2" stroke-linecap="round"/>
<line x1="60.0" y1="1093.0" x2="72.0" y2="1093.0" stroke="#111" stroke-width="2" stroke-linecap="round"/>
<line x1="66.0" y1="1093.0" x2="66.0" y2="1102.0" stroke="#111" stroke-width="2" stroke-linecap="round"/>
<line x1="66.0" y1="1074.0" x2="66.0" y2="1076.0" stroke="#111" stroke-width="2" stroke-linecap="round"/>
<line x1="66.0" y1="1102.0" x2="66.0" y2="1104.0" stroke="#111" stroke-width="2" stroke-linecap="round"/>
<text x="66.0" y="1116.0" font-family="Arial, Helvetica, sans-serif" font-size="9" fill="#111" text-anchor="middle">Circuit</text>
<text x="66.0" y="1126.0" font-family="Arial, Helvetica, sans-serif" font-size="9" fill="#111" text-anchor="middle">breaker</text>
<line x1="134.0" y1="1074.0" x2="134.0" y2="1077.0" stroke="#111" stroke-width="2" stroke-linecap="round"/>
<circle cx="134.0" cy="1079.5" r="2.5" fill="none" stroke="#111" stroke-width="1.5"/>
<line x1="136.0" y1="1082.0" x2="143.0" y2="1095.0" stroke="#111" stroke-width="2" stroke-linecap="round"/>
<line x1="128.0" y1="1095.0" x2="140.0" y2="1095.0" stroke="#111" stroke-width="2" stroke-linecap="round"/>
<line x1="134.0" y1="1095.0" x2="134.0" y2="1104.0" stroke="#111" stroke-width="2" stroke-linecap="round"/>
<text x="134.0" y="1116.0" font-family="Arial, Helvetica, sans-serif" font-size="9" fill="#111" text-anchor="middle">Load-break</text>
<text x="134.0" y="1126.0" font-family="Arial, Helvetica, sans-serif" font-size="9" fill="#111" text-anchor="middle">switch</text>
<rect x="198.0" y="1078.0" width="8.0" height="22.0" fill="none" stroke="#111" stroke-width="2"/>
<line x1="202.0" y1="1078.0" x2="202.0" y2="1100.0" stroke="#111" stroke-width="2" stroke-linecap="round"/>
<line x1="202.0" y1="1074.0" x2="202.0" y2="1078.0" stroke="#111" stroke-width="2" stroke-linecap="round"/>
<line x1="202.0" y1="1100.0" x2="202.0" y2="1104.0" stroke="#111" stroke-width="2" stroke-linecap="round"/>
<text x="202.0" y="1116.0" font-family="Arial, Helvetica, sans-serif" font-size="9" fill="#111" text-anchor="middle">Fuse</text>
<line x1="270.0" y1="1074.0" x2="270.0" y2="1077.0" stroke="#111" stroke-width="2" stroke-linecap="round"/>
<circle cx="270.0" cy="1079.5" r="2.5" fill="none" stroke="#111" stroke-width="1.5"/>
<line x1="272.0" y1="1082.0" x2="279.0" y2="1084.0" stroke="#111" stroke-width="2" stroke-linecap="round"/>
<line x1="264.0" y1="1084.0" x2="276.0" y2="1084.0" stroke="#111" stroke-width="2" stroke-linecap="round"/>
<line x1="270.0" y1="1084.0" x2="270.0" y2="1093.0" stroke="#111" stroke-width="2" stroke-linecap="round"/>
<rect x="266.0" y="1095.0" width="8.0" height="7.0" fill="none" stroke="#111" stroke-width="2"/>
<line x1="270.0" y1="1093.0" x2="270.0" y2="1095.0" stroke="#111" stroke-width="2" stroke-linecap="round"/>
<line x1="270.0" y1="1102.0" x2="270.0" y2="1104.0" stroke="#111" stroke-width="2" stroke-linecap="round"/>
<text x="270.0" y="1116.0" font-family="Arial, Helvetica, sans-serif" font-size="9" fill="#111" text-anchor="middle">Fuse-switch</text>
<line x1="338.0" y1="1076.0" x2="338.0" y2="1078.0" stroke="#111" stroke-width="2" stroke-linecap="round"/>
<path d="M 334.0,1082.0 A 4,4 0 0 1 342.0,1082.0" fill="none" stroke="#111" stroke-width="2" stroke-linecap="round"/>
<line x1="340.0" y1="1084.0" x2="346.0" y2="1096.0" stroke="#111" stroke-width="2" stroke-linecap="round"/>
<line x1="338.0" y1="1098.0" x2="338.0" y2="1102.0" stroke="#111" stroke-width="2" stroke-linecap="round"/>
<line x1="338.0" y1="1074.0" x2="338.0" y2="1076.0" stroke="#111" stroke-width="2" stroke-linecap="round"/>
<line x1="338.0" y1="1102.0" x2="338.0" y2="1104.0" stroke="#111" stroke-width="2" stroke-linecap="round"/>
<text x="338.0" y="1116.0" font-family="Arial, Helvetica, sans-serif" font-size="9" fill="#111" text-anchor="middle">Contactor</text>
<rect x="402.0" y="1073.0" width="8.0" height="12.0" fill="none" stroke="#111" stroke-width="2"/>
<line x1="406.0" y1="1073.0" x2="406.0" y2="1085.0" stroke="#111" stroke-width="2" stroke-linecap="round"/>
<path d="M 402.0,1089.0 A 4,4 0 0 1 410.0,1089.0" fill="none" stroke="#111" stroke-width="2" stroke-linecap="round"/>
<line x1="408.0" y1="1091.0" x2="413.0" y2="1100.0" stroke="#111" stroke-width="2" stroke-linecap="round"/>
<line x1="406.0" y1="1101.0" x2="406.0" y2="1105.0" stroke="#111" stroke-width="2" stroke-linecap="round"/>
<line x1="406.0" y1="1074.0" x2="406.0" y2="1073.0" stroke="#111" stroke-width="2" stroke-linecap="round"/>
<line x1="406.0" y1="1105.0" x2="406.0" y2="1104.0" stroke="#111" stroke-width="2" stroke-linecap="round"/>
<text x="406.0" y="1116.0" font-family="Arial, Helvetica, sans-serif" font-size="9" fill="#111" text-anchor="middle">Fused</text>
<text x="406.0" y="1126.0" font-family="Arial, Helvetica, sans-serif" font-size="9" fill="#111" text-anchor="middle">contactor</text>
<circle cx="474.0" cy="1084.0" r="8" fill="none" stroke="#111" stroke-width="2"/>
<circle cx="474.0" cy="1094.0" r="8" fill="none" stroke="#111" stroke-width="2"/>
<text x="474.0" y="1116.0" font-family="Arial, Helvetica, sans-serif" font-size="9" fill="#111" text-anchor="middle">Transformer</text>
<circle cx="542.0" cy="1089.0" r="9" fill="none" stroke="#111" stroke-width="2"/>
<text x="542.0" y="1092.5" font-family="Arial, Helvetica, sans-serif" font-size="9" fill="#111" text-anchor="middle" font-weight="bold">G</text>
<text x="542.0" y="1116.0" font-family="Arial, Helvetica, sans-serif" font-size="9" fill="#111" text-anchor="middle">Generator</text>
<circle cx="610.0" cy="1089.0" r="9" fill="none" stroke="#111" stroke-width="2"/>
<text x="610.0" y="1092.5" font-family="Arial, Helvetica, sans-serif" font-size="9" fill="#111" text-anchor="middle" font-weight="bold">M</text>
<text x="610.0" y="1116.0" font-family="Arial, Helvetica, sans-serif" font-size="9" fill="#111" text-anchor="middle">Pump/motor</text>
<line x1="664.0" y1="1089.0" x2="692.0" y2="1089.0" stroke="#111" stroke-width="5" stroke-linecap="round"/>
<text x="678.0" y="1116.0" font-family="Arial, Helvetica, sans-serif" font-size="9" fill="#111" text-anchor="middle">Busbar</text>
<rect x="735.0" y="1081.0" width="22.0" height="16.0" fill="none" stroke="#111" stroke-width="1.5"/>
<text x="746.0" y="1092.0" font-family="Arial, Helvetica, sans-serif" font-size="6.5" fill="#111" text-anchor="middle">MCC</text>
<text x="746.0" y="1116.0" font-family="Arial, Helvetica, sans-serif" font-size="9" fill="#111" text-anchor="middle">MCC</text>
<line x1="814.0" y1="1076.0" x2="814.0" y2="1093.0" stroke="#111" stroke-width="2" stroke-linecap="round"/>
<polygon points="808.0,1093.0 820.0,1093.0 814.0,1104.0" fill="#111"/>
<text x="814.0" y="1116.0" font-family="Arial, Helvetica, sans-serif" font-size="9" fill="#111" text-anchor="middle">Feeder</text>
<rect x="869.0" y="1079.0" width="26.0" height="20.0" fill="none" stroke="#111" stroke-width="1.2" stroke-dasharray="4 3"/>
<text x="882.0" y="1116.0" font-family="Arial, Helvetica, sans-serif" font-size="9" fill="#111" text-anchor="middle">RMU/MCC</text>
<text x="882.0" y="1126.0" font-family="Arial, Helvetica, sans-serif" font-size="9" fill="#111" text-anchor="middle">enclosure</text>
</svg>
