<svg xmlns="http://www.w3.org/2000/svg" width="870" height="880" viewBox="0 0 870 880">
<rect width="100%" height="100%" fill="white"/>
<text x="24.0" y="754.0" font-family="Arial, Helvetica, sans-serif" font-size="16" fill="#111" text-anchor="start" font-weight="bold">Example Site A — Single Line Diagram (sketch)</text>
<rect x="238.0" y="150.0" width="84.0" height="118.0" fill="none" stroke="#111" stroke-width="1.6" stroke-dasharray="7 5"/>
<line x1="262.0" y1="209.0" x2="298.0" y2="209.0" stroke="#111" stroke-width="3.4" stroke-linecap="round"/>
<line x1="280.0" y1="162.0" x2="280.0" y2="167.0" stroke="#111" stroke-width="2" stroke-linecap="round"/>
<line x1="280.0" y1="167.0" x2="289.0" y2="200.0" stroke="#111" stroke-width="2" stroke-linecap="round"/>
<line x1="274.0" y1="200.0" x2="286.0" y2="200.0" stroke="#111" stroke-width="2" stroke-linecap="round"/>
<line x1="280.0" y1="200.0" x2="280.0" y2="209.0" stroke="#111" stroke-width="2" stroke-linecap="round"/>
<line x1="280.0" y1="150.0" x2="280.0" y2="162.0" stroke="#111" stroke-width="2" stroke-linecap="round"/>
<circle cx="280.0" cy="209.0" r="3.2" fill="#111"/>
<line x1="280.0" y1="213.0" x2="280.0" y2="218.0" stroke="#111" stroke-width="2" stroke-linecap="round"/>
<line x1="280.0" y1="218.0" x2="289.0" y2="231.5" stroke="#111" stroke-width="2" stroke-linecap="round"/>
<line x1="274.0" y1="231.5" x2="286.0" y2="231.5" stroke="#111" stroke-width="2" stroke-linecap="round"/>
<line x1="280.0" y1="231.5" x2="280.0" y2="240.5" stroke="#111" stroke-width="2" stroke-linecap="round"/>
<rect x="276.0" y="242.5" width="8.0" height="15.5" fill="none" stroke="#111" stroke-width="2"/>
<line x1="280.0" y1="240.5" x2="280.0" y2="242.5" stroke="#111" stroke-width="2" stroke-linecap="round"/>
<line x1="280.0" y1="258.0" x2="280.0" y2="260.0" stroke="#111" stroke-width="2" stroke-linecap="round"/>
<line x1="280.0" y1="209.0" x2="280.0" y2="213.0" stroke="#111" stroke-width="2" stroke-linecap="round"/>
<line x1="280.0" y1="260.0" x2="280.0" y2="268.0" stroke="#111" stroke-width="2" stroke-linecap="round"/>
<circle cx="280.0" cy="209.0" r="3.2" fill="#111"/>
<text x="332.0" y="166.0" font-family="Arial, Helvetica, sans-serif" font-size="12" fill="#111" text-anchor="start" font-weight="bold">RMU1</text>
<text x="332.0" y="181.0" font-family="Arial, Helvetica, sans-serif" font-size="12" fill="#111" text-anchor="start">3-way ring main unit</text>
<text x="332.0" y="196.0" font-family="Arial, Helvetica, sans-serif" font-size="12" fill="#111" text-anchor="start">630 A 11 kV</text>
<line x1="269.0" y1="62.0" x2="291.0" y2="62.0" stroke="#111" stroke-width="3" stroke-linecap="round"/>
<text x="280.0" y="18.0" font-family="Arial, Helvetica, sans-serif" font-size="11.5" fill="#111" text-anchor="middle" font-weight="bold">MV1</text>
<text x="280.0" y="32.0" font-family="Arial, Helvetica, sans-serif" font-size="11.5" fill="#111" text-anchor="middle">Utility supply</text>
<text x="280.0" y="46.0" font-family="Arial, Helvetica, sans-serif" font-size="11.5" fill="#111" text-anchor="middle">11 kV</text>
<line x1="280.0" y1="62.0" x2="280.0" y2="150.0" stroke="#111" stroke-width="2" stroke-linecap="round"/>
<circle cx="280.0" cy="342.0" r="19" fill="none" stroke="#111" stroke-width="2.2"/>
<circle cx="280.0" cy="369.0" r="19" fill="none" stroke="#111" stroke-width="2.2"/>
<text x="309.0" y="336.0" font-family="Arial, Helvetica, sans-serif" font-size="12" fill="#111" text-anchor="start">TX1</text>
<text x="309.0" y="351.0" font-family="Arial, Helvetica, sans-serif" font-size="12" fill="#111" text-anchor="start">Oil-immersed, Dyn11</text>
<text x="309.0" y="366.0" font-family="Arial, Helvetica, sans-serif" font-size="12" fill="#111" text-anchor="start">1000 kVA 11/0.4 kV</text>
<line x1="280.0" y1="268.0" x2="280.0" y2="323.0" stroke="#111" stroke-width="2" stroke-linecap="round"/>
<line x1="273.5" y1="430.5" x2="286.5" y2="443.5" stroke="#111" stroke-width="2" stroke-linecap="round"/>
<line x1="273.5" y1="443.5" x2="286.5" y2="430.5" stroke="#111" stroke-width="2" stroke-linecap="round"/>
<line x1="280.0" y1="388.0" x2="280.0" y2="437.0" stroke="#111" stroke-width="2" stroke-linecap="round"/>
<line x1="280.0" y1="437.0" x2="280.0" y2="486.0" stroke="#111" stroke-width="2" stroke-linecap="round"/>
<circle cx="280.0" cy="486.0" r="3.2" fill="#111"/>
<line x1="90.0" y1="486.0" x2="470.0" y2="486.0" stroke="#111" stroke-width="5.5" stroke-linecap="round"/>
<text x="90.0" y="474.0" font-family="Arial, Helvetica, sans-serif" font-size="11.5" fill="#111" text-anchor="start" font-weight="bold">BB1 Main LV board 1600 A 400 V</text>
<circle cx="137.5" cy="486.0" r="3.2" fill="#111"/>
<line x1="131.0" y1="509.5" x2="144.0" y2="522.5" stroke="#111" stroke-width="2" stroke-linecap="round"/>
<line x1="131.0" y1="522.5" x2="144.0" y2="509.5" stroke="#111" stroke-width="2" stroke-linecap="round"/>
<line x1="137.5" y1="486.0" x2="137.5" y2="516.0" stroke="#111" stroke-width="2" stroke-linecap="round"/>
<line x1="137.5" y1="516.0" x2="137.5" y2="564.0" stroke="#111" stroke-width="2" stroke-linecap="round"/>
<polygon points="131.5,563.0 143.5,563.0 137.5,574.0" fill="#111"/>
<text x="0" y="0" transform="translate(141.5,592.0) rotate(90)" font-family="Arial, Helvetica, sans-serif" font-size="11" fill="#111" text-anchor="start">F1 · Lighting · 100 A</text>
<circle cx="232.5" cy="486.0" r="3.2" fill="#111"/>
<line x1="226.0" y1="509.5" x2="239.0" y2="522.5" stroke="#111" stroke-width="2" stroke-linecap="round"/>
<line x1="226.0" y1="522.5" x2="239.0" y2="509.5" stroke="#111" stroke-width="2" stroke-linecap="round"/>
<line x1="232.5" y1="486.0" x2="232.5" y2="516.0" stroke="#111" stroke-width="2" stroke-linecap="round"/>
<line x1="232.5" y1="516.0" x2="232.5" y2="564.0" stroke="#111" stroke-width="2" stroke-linecap="round"/>
<polygon points="226.5,563.0 238.5,563.0 232.5,574.0" fill="#111"/>
<text x="0" y="0" transform="translate(236.5,592.0) rotate(90)" font-family="Arial, Helvetica, sans-serif" font-size="11" fill="#111" text-anchor="start">F2 · Small power · 160 A</text>
<circle cx="327.5" cy="486.0" r="3.2" fill="#111"/>
<line x1="321.0" y1="509.5" x2="334.0" y2="522.5" stroke="#111" stroke-width="2" stroke-linecap="round"/>
<line x1="321.0" y1="522.5" x2="334.0" y2="509.5" stroke="#111" stroke-width="2" stroke-linecap="round"/>
<line x1="327.5" y1="486.0" x2="327.5" y2="516.0" stroke="#111" stroke-width="2" stroke-linecap="round"/>
<line x1="327.5" y1="516.0" x2="327.5" y2="564.0" stroke="#111" stroke-width="2" stroke-linecap="round"/>
<polygon points="321.5,563.0 333.5,563.0 327.5,574.0" fill="#111"/>
<text x="0" y="0" transform="translate(331.5,592.0) rotate(90)" font-family="Arial, Helvetica, sans-serif" font-size="11" fill="#111" text-anchor="start">F3 · HVAC · 250 A</text>
<circle cx="422.5" cy="486.0" r="3.2" fill="#111"/>
<line x1="416.0" y1="509.5" x2="429.0" y2="522.5" stroke="#111" stroke-width="2" stroke-linecap="round"/>
<line x1="416.0" y1="522.5" x2="429.0" y2="509.5" stroke="#111" stroke-width="2" stroke-linecap="round"/>
<line x1="422.5" y1="486.0" x2="422.5" y2="516.0" stroke="#111" stroke-width="2" stroke-linecap="round"/>
<line x1="422.5" y1="516.0" x2="422.5" y2="564.0" stroke="#111" stroke-width="2" stroke-linecap="round"/>
<polygon points="416.5,563.0 428.5,563.0 422.5,574.0" fill="#111"/>
<text x="0" y="0" transform="translate(426.5,592.0) rotate(90)" font-family="Arial, Helvetica, sans-serif" font-size="11" fill="#111" text-anchor="start">F4 · Spare · 100 A</text>
<rect x="558.0" y="664.0" width="288.0" height="96.0" fill="none" stroke="#111" stroke-width="1.5"/>
<line x1="558.0" y1="688.0" x2="846.0" y2="688.0" stroke="#111" stroke-width="1.5" stroke-linecap="round"/>
<text x="568.0" y="681.0" font-family="Arial, Helvetica, sans-serif" font-size="12" fill="#111" text-anchor="start" font-weight="bold">SLD SKETCH — SITE SURVEY</text>
<text x="568.0" y="704.0" font-family="Arial, Helvetica, sans-serif" font-size="11" fill="#111" text-anchor="start" font-weight="bold">Site:</text>
<text x="616.0" y="704.0" font-family="Arial, Helvetica, sans-serif" font-size="11" fill="#111" text-anchor="start">Example Site A</text>
<text x="568.0" y="720.0" font-family="Arial, Helvetica, sans-serif" font-size="11" fill="#111" text-anchor="start" font-weight="bold">Date:</text>
<text x="616.0" y="720.0" font-family="Arial, Helvetica, sans-serif" font-size="11" fill="#111" text-anchor="start">2026-08-31</text>
<text x="568.0" y="736.0" font-family="Arial, Helvetica, sans-serif" font-size="11" fill="#111" text-anchor="start" font-weight="bold">By:</text>
<text x="616.0" y="736.0" font-family="Arial, Helvetica, sans-serif" font-size="11" fill="#111" text-anchor="start">A. Ardigo</text>
<text x="568.0" y="752.0" font-family="Arial, Helvetica, sans-serif" font-size="11" fill="#111" text-anchor="start" font-weight="bold">Notes:</text>
<text x="616.0" y="752.0" font-family="Arial, Helvetica, sans-serif" font-size="11" fill="#111" text-anchor="start">Config 1 - single transformer substation</text>
<rect x="24.0" y="786.0" width="830.0" height="82.0" fill="none" stroke="#111" stroke-width="1.2"/>
<text x="32.0" y="800.0" font-family="Arial, Helvetica, sans-serif" font-size="10" fill="#111" text-anchor="start" font-weight="bold">LEGEND</text>
<line x1="62.5" y1="816.5" x2="75.5" y2="829.5" stroke="#111" stroke-width="2" stroke-linecap="round"/>
<line x1="62.5" y1="829.5" x2="75.5" y2="816.5" stroke="#111" stroke-width="2" stroke-linecap="round"/>
<line x1="69.0" y1="808.0" x2="69.0" y2="823.0" stroke="#111" stroke-width="2" stroke-linecap="round"/>
<line x1="69.0" y1="823.0" x2="69.0" y2="838.0" stroke="#111" stroke-width="2" stroke-linecap="round"/>
<text x="69.0" y="850.0" font-family="Arial, Helvetica, sans-serif" font-size="9" fill="#111" text-anchor="middle">Circuit</text>
<text x="69.0" y="860.0" font-family="Arial, Helvetica, sans-serif" font-size="9" fill="#111" text-anchor="middle">breaker</text>
<line x1="143.0" y1="808.0" x2="143.0" y2="813.0" stroke="#111" stroke-width="2" stroke-linecap="round"/>
<line x1="143.0" y1="813.0" x2="152.0" y2="829.0" stroke="#111" stroke-width="2" stroke-linecap="round"/>
<line x1="137.0" y1="829.0" x2="149.0" y2="829.0" stroke="#111" stroke-width="2" stroke-linecap="round"/>
<line x1="143.0" y1="829.0" x2="143.0" y2="838.0" stroke="#111" stroke-width="2" stroke-linecap="round"/>
<text x="143.0" y="850.0" font-family="Arial, Helvetica, sans-serif" font-size="9" fill="#111" text-anchor="middle">Load-break</text>
<text x="143.0" y="860.0" font-family="Arial, Helvetica, sans-serif" font-size="9" fill="#111" text-anchor="middle">switch</text>
<rect x="213.0" y="812.0" width="8.0" height="22.0" fill="none" stroke="#111" stroke-width="2"/>
<line x1="217.0" y1="812.0" x2="217.0" y2="834.0" stroke="#111" stroke-width="2" stroke-linecap="round"/>
<line x1="217.0" y1="808.0" x2="217.0" y2="812.0" stroke="#111" stroke-width="2" stroke-linecap="round"/>
<line x1="217.0" y1="834.0" x2="217.0" y2="838.0" stroke="#111" stroke-width="2" stroke-linecap="round"/>
<text x="217.0" y="850.0" font-family="Arial, Helvetica, sans-serif" font-size="9" fill="#111" text-anchor="middle">Fuse</text>
<line x1="291.0" y1="808.0" x2="291.0" y2="813.0" stroke="#111" stroke-width="2" stroke-linecap="round"/>
<line x1="291.0" y1="813.0" x2="300.0" y2="818.0" stroke="#111" stroke-width="2" stroke-linecap="round"/>
<line x1="285.0" y1="818.0" x2="297.0" y2="818.0" stroke="#111" stroke-width="2" stroke-linecap="round"/>
<line x1="291.0" y1="818.0" x2="291.0" y2="827.0" stroke="#111" stroke-width="2" stroke-linecap="round"/>
<rect x="287.0" y="829.0" width="8.0" height="7.0" fill="none" stroke="#111" stroke-width="2"/>
<line x1="291.0" y1="827.0" x2="291.0" y2="829.0" stroke="#111" stroke-width="2" stroke-linecap="round"/>
<line x1="291.0" y1="836.0" x2="291.0" y2="838.0" stroke="#111" stroke-width="2" stroke-linecap="round"/>
<text x="291.0" y="850.0" font-family="Arial, Helvetica, sans-serif" font-size="9" fill="#111" text-anchor="middle">Fuse-switch</text>
<path d="M 365.0,830.0 A 7,7 0 0 1 365.0,816.0" fill="none" stroke="#111" stroke-width="2" stroke-linecap="round"/>
<line x1="365.0" y1="808.0" x2="365.0" y2="816.0" stroke="#111" stroke-width="2" stroke-linecap="round"/>
<line x1="365.0" y1="830.0" x2="365.0" y2="838.0" stroke="#111" stroke-width="2" stroke-linecap="round"/>
<text x="365.0" y="850.0" font-family="Arial, Helvetica, sans-serif" font-size="9" fill="#111" text-anchor="middle">Contactor</text>
<circle cx="439.0" cy="818.0" r="8" fill="none" stroke="#111" stroke-width="2"/>
<circle cx="439.0" cy="828.0" r="8" fill="none" stroke="#111" stroke-width="2"/>
<text x="439.0" y="850.0" font-family="Arial, Helvetica, sans-serif" font-size="9" fill="#111" text-anchor="middle">Transformer</text>
<circle cx="513.0" cy="823.0" r="9" fill="none" stroke="#111" stroke-width="2"/>
<text x="513.0" y="826.5" font-family="Arial, Helvetica, sans-serif" font-size="9" fill="#111" text-anchor="middle" font-weight="bold">M</text>
<text x="513.0" y="850.0" font-family="Arial, Helvetica, sans-serif" font-size="9" fill="#111" text-anchor="middle">Pump/motor</text>
<line x1="573.0" y1="823.0" x2="601.0" y2="823.0" stroke="#111" stroke-width="5" stroke-linecap="round"/>
<text x="587.0" y="850.0" font-family="Arial, Helvetica, sans-serif" font-size="9" fill="#111" text-anchor="middle">Busbar</text>
<rect x="650.0" y="815.0" width="22.0" height="16.0" fill="none" stroke="#111" stroke-width="1.5"/>
<text x="661.0" y="826.0" font-family="Arial, Helvetica, sans-serif" font-size="6.5" fill="#111" text-anchor="middle">MCC</text>
<text x="661.0" y="850.0" font-family="Arial, Helvetica, sans-serif" font-size="9" fill="#111" text-anchor="middle">MCC</text>
<line x1="735.0" y1="810.0" x2="735.0" y2="827.0" stroke="#111" stroke-width="2" stroke-linecap="round"/>
<polygon points="729.0,827.0 741.0,827.0 735.0,838.0" fill="#111"/>
<text x="735.0" y="850.0" font-family="Arial, Helvetica, sans-serif" font-size="9" fill="#111" text-anchor="middle">Feeder</text>
<rect x="796.0" y="813.0" width="26.0" height="20.0" fill="none" stroke="#111" stroke-width="1.2" stroke-dasharray="4 3"/>
<text x="809.0" y="850.0" font-family="Arial, Helvetica, sans-serif" font-size="9" fill="#111" text-anchor="middle">RMU</text>
<text x="809.0" y="860.0" font-family="Arial, Helvetica, sans-serif" font-size="9" fill="#111" text-anchor="middle">enclosure</text>
</svg>
